<svg xmlns="http://www.w3.org/2000/svg" viewBox="0 0 24 24" id="server"><g fill="none" stroke="#303c42" stroke-linecap="round" stroke-linejoin="round" data-name="Server 2"><rect width="21" height="7" x="1.5" y="1.5" rx="1.5" ry="1.5"></rect><rect width="21" height="7" x="1.5" y="8.5" rx="1.5" ry="1.5"></rect><path d="M4.5 3.5v3M6.5 3.5v3M8.5 3.5v3"></path><circle cx="19" cy="5" r=".5"></circle><circle cx="16" cy="5" r=".5"></circle><path d="M4.5 10.5v3M6.5 10.5v3M8.5 10.5v3"></path><circle cx="19" cy="12" r=".5"></circle><circle cx="16" cy="12" r=".5"></circle><rect width="21" height="7" x="1.5" y="15.5" rx="1.5" ry="1.5"></rect><path d="M4.5 17.5v3M6.5 17.5v3M8.5 17.5v3"></path><circle cx="19" cy="19" r=".5"></circle><circle cx="16" cy="19" r=".5"></circle></g></svg>